<svg width="48px" height="48px" viewBox="0 0 48 48" version="1.1" xmlns="http://www.w3.org/2000/svg" xmlns:xlink="http://www.w3.org/1999/xlink">
    <g id="Welcome" stroke="none" stroke-width="1" fill="none" fill-rule="evenodd">
        <g id="Desktop" transform="translate(-600.000000, -381.000000)">
            <g id="link-(2)" transform="translate(600.000000, 381.000000)">
                <circle id="Oval" fill="#FE393B" cx="24" cy="24" r="24"></circle>
                <g id="link-(3)" transform="translate(12.000000, 12.000000)" stroke="#222222" stroke-linecap="round" stroke-linejoin="round" stroke-width="3">
                    <path d="M9.6,13.2 C10.6427466,14.5940315 12.2395528,15.4664405 13.9759798,15.5908 C15.7124069,15.7151595 17.417239,15.0792074 18.648,13.848 L22.248,10.248 C24.5218333,7.89372668 24.4893142,4.15149134 22.1749115,1.83708855 C19.8605087,-0.477314243 16.1182733,-0.509833257 13.764,1.764 L11.7,3.816" id="Path"></path>
                    <path d="M14.4,10.8 C13.3572534,9.4059685 11.7604472,8.53355949 10.0240202,8.40919999 C8.28759308,8.28484049 6.58276104,8.92079265 5.352,10.152 L1.752,13.752 C-0.521833257,16.1062733 -0.489314243,19.8485087 1.82508855,22.1629115 C4.13949134,24.4773142 7.88172668,24.5098333 10.236,22.236 L12.288,20.184" id="Path"></path>
                </g>
            </g>
        </g>
    </g>
</svg>
